<svg width="15" height="10" viewBox="0 0 15 10" fill="none" xmlns="http://www.w3.org/2000/svg">
<path fill-rule="evenodd" clip-rule="evenodd" d="M8.62195 9.49317C8.32684 9.81771 7.92681 10 7.50973 10C7.09264 10 6.69261 9.81771 6.39751 9.49317L0.460761 2.95845C0.165642 2.63334 -9.8344e-05 2.19245 4.3779e-08 1.73278C9.84315e-05 1.27311 0.166027 0.83231 0.461285 0.507351C0.756543 0.182391 1.15694 -0.000108288 1.5744 4.82055e-08C1.99186 0.000108384 2.39218 0.182816 2.6873 0.507928L7.50973 5.81796L12.3322 0.507928C12.6289 0.192083 13.0264 0.0171932 13.439 0.0209261C13.8517 0.0246591 14.2465 0.206716 14.5385 0.527885C14.8304 0.849055 14.9962 1.28364 14.9999 1.73804C15.0037 2.19243 14.8453 2.63029 14.5587 2.95729L8.623 9.49432L8.62195 9.49317Z" fill="white"/>
</svg>
