<svg width="35" height="35" viewBox="0 0 35 35" fill="none" xmlns="http://www.w3.org/2000/svg">
<path d="M28.5114 25.3329H10.8299C9.45988 25.3329 8.37996 24.3425 8.26124 22.9779C8.18057 22.0459 8.57128 21.2087 9.25704 20.6962L6.48557 8.28685C6.40911 7.94531 6.4921 7.58803 6.71069 7.31487C6.92929 7.04172 7.26046 6.88306 7.61006 6.88306H33.616C33.9894 6.88306 34.3397 7.06401 34.5557 7.36828C34.7719 7.67255 34.8269 8.06287 34.704 8.41516L31.7081 16.9993C31.289 18.2018 30.249 19.085 28.9947 19.304L10.7888 22.4854C10.7845 22.4857 10.7807 22.4865 10.7765 22.4873C10.6889 22.5026 10.5371 22.5357 10.5583 22.7789C10.5798 23.0278 10.7427 23.0278 10.8303 23.0278H28.5117C29.1483 23.0278 29.6643 23.5438 29.6643 24.1804C29.6643 24.8169 29.1479 25.3329 28.5114 25.3329Z" fill="white"/>
<path d="M11.0454 31.8103C12.4245 31.8103 13.5426 30.6922 13.5426 29.3131C13.5426 27.9339 12.4245 26.8159 11.0454 26.8159C9.66624 26.8159 8.54822 27.9339 8.54822 29.3131C8.54822 30.6922 9.66624 31.8103 11.0454 31.8103Z" fill="white"/>
<path d="M26.428 31.8103C27.8071 31.8103 28.9251 30.6922 28.9251 29.3131C28.9251 27.9339 27.8071 26.8159 26.428 26.8159C25.0488 26.8159 23.9308 27.9339 23.9308 29.3131C23.9308 30.6922 25.0488 31.8103 26.428 31.8103Z" fill="white"/>
<path d="M7.60929 9.18856C7.08143 9.18856 6.60543 8.82359 6.48557 8.28689L5.95732 5.92227C5.74449 4.9695 4.91389 4.3041 3.93731 4.3041H1.34486C0.708275 4.3041 0.192322 3.78815 0.192322 3.15156C0.192322 2.51498 0.708275 1.99902 1.34486 1.99902H3.93769C6.0015 1.99902 7.7572 3.40589 8.20708 5.41976L8.73532 7.78438C8.87401 8.4056 8.48292 9.02183 7.8617 9.16052C7.7768 9.17934 7.69228 9.18856 7.60929 9.18856Z" fill="white"/>
</svg>
