<svg width="35" height="35" viewBox="0 0 35 35" fill="none" xmlns="http://www.w3.org/2000/svg">
<path d="M21.5389 30.0662C21.5389 32.4511 19.6053 34.3843 17.2207 34.3843C14.8361 34.3843 12.9025 32.4508 12.9025 30.0662" fill="white"/>
<path d="M24.7771 13.764C28.4187 13.764 31.3708 10.8119 31.3708 7.17034C31.3708 3.52875 28.4187 0.57666 24.7771 0.57666C21.1355 0.57666 18.1834 3.52875 18.1834 7.17034C18.1834 10.8119 21.1355 13.764 24.7771 13.764Z" fill="#FF2C2C"/>
<path d="M29.4691 23.5471C28.592 22.798 28.0872 21.7027 28.0872 20.5494V15.9827C27.0572 16.3699 25.9423 16.5827 24.7771 16.5827C19.5788 16.5827 15.3647 12.3687 15.3647 7.17034C15.3647 4.61823 16.382 2.30508 18.0309 0.6097C17.7632 0.590106 17.4935 0.57666 17.2203 0.57666C11.219 0.57666 6.35379 5.44191 6.35379 11.4436V15.7998V20.5494C6.35379 21.7027 5.84897 22.798 4.97189 23.5471C4.09481 24.2963 3.59 25.3916 3.59 26.5449C3.59 27.2376 4.15167 27.7993 4.84434 27.7993H29.5967C30.2893 27.7993 30.851 27.2376 30.851 26.5449C30.851 25.3916 30.3462 24.2963 29.4691 23.5471Z" fill="white"/>
<path d="M29.5966 28.1829H4.84434C3.94075 28.1829 3.20581 27.448 3.20581 26.5444C3.20581 25.2766 3.75865 24.0776 4.72255 23.2547C5.51511 22.5778 5.9696 21.592 5.9696 20.5493V11.4435C5.9696 5.23974 11.0166 0.192383 17.2203 0.192383H18.0305C18.243 0.192383 18.4147 0.364495 18.4147 0.576563C18.4147 0.78863 18.243 0.960742 18.0305 0.960742H17.2203C11.4403 0.960742 6.73796 5.6631 6.73796 11.4435V20.5497C6.73796 21.8175 6.18512 23.0165 5.2216 23.8394C4.42904 24.5163 3.97417 25.5021 3.97417 26.5448C3.97417 27.0246 4.3645 27.415 4.84434 27.415H29.5966C30.0765 27.415 30.4668 27.0246 30.4668 26.5448C30.4668 25.5021 30.0119 24.5163 29.2198 23.8394C28.2559 23.0161 27.7034 21.8171 27.7034 20.5497V15.7997C27.7034 15.5876 27.8751 15.4155 28.0876 15.4155C28.3 15.4155 28.4718 15.5876 28.4718 15.7997V20.5493C28.4718 21.592 28.9266 22.5778 29.7188 23.2547C30.6827 24.078 31.2352 25.277 31.2352 26.5444C31.2352 27.448 30.5002 28.1829 29.5966 28.1829Z" fill="black"/>
<path d="M24.7771 14.1485C20.9292 14.1485 17.7989 11.0182 17.7989 7.17024C17.7989 3.32268 20.9296 0.192383 24.7771 0.192383C28.6247 0.192383 31.755 3.32268 31.755 7.17024C31.755 11.0182 28.6251 14.1485 24.7771 14.1485ZM24.7771 0.960742C21.3529 0.960742 18.5672 3.74605 18.5672 7.17024C18.5672 10.5944 21.3529 13.3801 24.7771 13.3801C28.2009 13.3801 30.9866 10.5944 30.9866 7.17024C30.9866 3.74605 28.2009 0.960742 24.7771 0.960742Z" fill="black"/>
<path d="M17.2203 34.7687C14.6271 34.7687 12.5179 32.6591 12.5179 30.0663C12.5179 29.8539 12.6901 29.6821 12.9021 29.6821C13.1142 29.6821 13.2863 29.8539 13.2863 30.0663C13.2863 32.2354 15.0512 34.0003 17.2203 34.0003C19.3894 34.0003 21.1543 32.2354 21.1543 30.0663C21.1543 29.8539 21.326 29.6821 21.5385 29.6821C21.7509 29.6821 21.9227 29.8539 21.9227 30.0663C21.9227 32.6591 19.8131 34.7687 17.2203 34.7687Z" fill="black"/>
<path d="M24.7771 10.5133C24.5647 10.5133 24.3929 10.3412 24.3929 10.1291V4.55426L23.5159 5.56197C23.3768 5.72255 23.1336 5.73831 22.9742 5.59962C22.814 5.46016 22.7971 5.21736 22.9365 5.05754L24.4875 3.2761C24.5923 3.15547 24.7621 3.11205 24.9116 3.16853C25.0618 3.22462 25.1609 3.3683 25.1609 3.5285V10.1299C25.1613 10.3412 24.9896 10.5133 24.7771 10.5133Z" fill="black"/>
<path d="M26.3277 10.5135H23.2262C23.0137 10.5135 22.842 10.3414 22.842 10.1293C22.842 9.91723 23.0137 9.74512 23.2262 9.74512H26.3277C26.5401 9.74512 26.7119 9.91723 26.7119 10.1293C26.7119 10.3414 26.5401 10.5135 26.3277 10.5135Z" fill="black"/>
</svg>
